<?xml version="1.0" encoding="iso-8859-1"?>
<!-- Uploaded to: SVG Repo, www.svgrepo.com, Generator: SVG Repo Mixer Tools -->
<svg height="800px" width="800px" version="1.1" id="Layer_1" xmlns="http://www.w3.org/2000/svg" xmlns:xlink="http://www.w3.org/1999/xlink" 
	 viewBox="0 0 511.673 511.673" xml:space="preserve">
<path style="fill:#8CC153;" d="M366.267,168.811l47.562-47.579l-43.55-43.55l-47.563,47.579
	c-31.683-14.163-65.816-3.888-91.824,22.111l-55.355,55.37l-23.048,23.047l-13.07,13.054c-2.405,2.405-2.405,6.309,0,8.713
	l104.542,104.559c2.405,2.404,6.309,2.404,8.713,0l13.07-13.086l23.039-23.048l55.371-55.339
	C370.154,234.628,380.429,200.493,366.267,168.811z"/>
<g style="opacity:0.1;">
	<path d="M150.077,249.509l13.07-13.07l23.048-23.047l55.363-55.355c25.999-25.999,60.125-36.273,91.825-22.126l47.562-47.563
		L370.28,77.683l-47.563,47.579c-31.683-14.163-65.816-3.888-91.824,22.111l-55.356,55.369l-23.048,23.047l-13.07,13.054
		c-2.405,2.405-2.405,6.309,0,8.713l10.657,10.665C147.672,255.817,147.672,251.929,150.077,249.509z"/>
</g>
<path style="fill:#A0D468;" d="M413.518,121.028l-43.285-43.3c-4.153-4.154-10.899-4.154-15.084,0
	c-4.153,4.169-4.153,10.915,0,15.084l43.3,43.285c2.078,2.092,4.811,3.123,7.543,3.123c2.717,0,5.465-1.03,7.526-3.123
	C417.687,131.943,417.687,125.198,413.518,121.028z"/>
<path style="fill:#5D9CEC;" d="M0.001,245.09c0.031,0,0.055,0,0.086,0c3.139,0,5.239,0.843,5.91,1.296l28.482,18.988
	c8.182,5.449,18.683,8.447,29.567,8.447c10.883,0,21.377-2.998,29.559-8.447l28.482-18.988c0.679-0.453,2.779-1.296,5.918-1.296
	c3.139,0,5.239,0.843,5.91,1.296l28.482,18.988c8.182,5.449,18.683,8.447,29.567,8.447s21.377-2.998,29.559-8.447l28.482-18.988
	c0.671-0.453,2.779-1.296,5.918-1.296c3.139,0,5.238,0.843,5.91,1.296l28.482,18.988c8.182,5.449,18.676,8.447,29.574,8.447
	c10.868,0,21.361-2.998,29.544-8.447l28.481-18.988c0.688-0.453,2.779-1.296,5.934-1.296c3.123,0,5.231,0.843,5.902,1.296
	l28.482,18.988c8.182,5.449,18.676,8.447,29.574,8.447c10.868,0,21.361-2.998,29.544-8.447l28.481-18.988
	c0.688-0.453,2.748-1.28,5.84-1.296v-21.33c-6.402,0.031-12.804,1.655-17.66,4.888l-28.467,18.987
	c-4.887,3.248-11.32,4.888-17.738,4.888c-6.434,0-12.867-1.64-17.754-4.888l-28.467-18.987c-4.887-3.264-11.32-4.888-17.738-4.888
	c-6.434,0-12.867,1.624-17.754,4.888l-28.467,18.987c-4.887,3.248-11.32,4.888-17.738,4.888c-6.434,0-12.867-1.64-17.738-4.888
	l-28.482-18.987c-4.887-3.264-11.32-4.888-17.746-4.888c-6.433,0-12.867,1.624-17.739,4.888l-28.481,18.987
	c-4.88,3.248-11.313,4.888-17.739,4.888c-6.434,0-12.867-1.64-17.739-4.888l-28.481-18.987c-4.88-3.264-11.313-4.888-17.739-4.888
	c-6.434,0-12.867,1.624-17.739,4.888l-28.481,18.987c-4.88,3.248-11.313,4.888-17.739,4.888c-6.434,0-12.867-1.64-17.739-4.888
	l-28.482-18.987c-4.879-3.264-11.313-4.888-17.738-4.888c-0.031,0-0.055,0-0.086,0v21.33H0.001z"/>
<g>
	<path style="fill:#4A89DC;" d="M477.352,259.378c-8.183,5.449-18.676,8.447-29.544,8.447c-10.898,0-21.393-2.998-29.574-8.447
		l-28.482-18.988c-0.671-0.453-2.779-1.296-5.902-1.296c-3.154,0-5.246,0.843-5.934,1.296l-28.481,18.988
		c-8.183,5.449-18.676,8.447-29.544,8.447c-10.898,0-21.393-2.998-29.574-8.447l-28.482-18.988c-0.672-0.453-2.771-1.296-5.91-1.296
		s-5.247,0.843-5.918,1.296l-28.482,18.988c-8.182,5.449-18.675,8.447-29.559,8.447s-21.385-2.998-29.567-8.447l-28.482-18.988
		c-0.671-0.453-2.771-1.296-5.91-1.296s-5.239,0.843-5.918,1.296l-28.482,18.988c-8.182,5.449-18.676,8.447-29.559,8.447
		c-10.884,0-21.385-2.998-29.567-8.447L5.997,240.39c-0.671-0.453-2.771-1.296-5.91-1.296c-0.031,0-0.055,0-0.086,0v197.967h511.672
		V239.094c-3.092,0.016-5.152,0.843-5.84,1.296L477.352,259.378z"/>
	<path style="fill:#4A89DC;" d="M0.001,223.76L0.001,223.76c0.008,0,0.008,0,0.016,0H0.001z"/>
</g>
</svg>